<svg width="142" height="42" viewBox="0 0 142 42" fill="none" xmlns="http://www.w3.org/2000/svg">
    <g clip-path="url(#clip0_4709_377)">
    <path d="M136.089 0.0827637H5.3566C2.46855 0.0827637 0.127319 2.42399 0.127319 5.31205V36.6877C0.127319 39.5758 2.46855 41.917 5.3566 41.917H136.089C138.977 41.917 141.318 39.5758 141.318 36.6877V5.31205C141.318 2.42399 138.977 0.0827637 136.089 0.0827637Z" fill="black"/>
    <path d="M136.089 0.919449C137.254 0.919449 138.371 1.38224 139.195 2.20601C140.018 3.02978 140.481 4.14706 140.481 5.31205V36.6877C140.481 37.8527 140.018 38.97 139.195 39.7938C138.371 40.6175 137.254 41.0803 136.089 41.0803H5.3566C4.19161 41.0803 3.07434 40.6175 2.25057 39.7938C1.42679 38.97 0.964005 37.8527 0.964005 36.6877V5.31205C0.964005 4.14706 1.42679 3.02978 2.25057 2.20601C3.07434 1.38224 4.19161 0.919449 5.3566 0.919449H136.089ZM136.089 0.0827637H5.3566C3.96971 0.0827637 2.63962 0.633704 1.65894 1.61438C0.67826 2.59507 0.127319 3.92515 0.127319 5.31205V36.6877C0.127319 38.0746 0.67826 39.4047 1.65894 40.3854C2.63962 41.3661 3.96971 41.917 5.3566 41.917H136.089C137.476 41.917 138.806 41.3661 139.786 40.3854C140.767 39.4047 141.318 38.0746 141.318 36.6877V5.31205C141.318 3.92515 140.767 2.59507 139.786 1.61438C138.806 0.633704 137.476 0.0827637 136.089 0.0827637Z" fill="#A6A6A6"/>
    <path d="M49.7219 10.792C49.7396 11.1756 49.6793 11.5588 49.5444 11.9184C49.4096 12.2779 49.2031 12.6064 48.9375 12.8837C48.6409 13.1918 48.2827 13.4339 47.8862 13.5943C47.4898 13.7547 47.064 13.8297 46.6366 13.8145C45.9881 13.8094 45.3556 13.6131 44.8183 13.2501C44.2809 12.8871 43.8626 12.3736 43.6158 11.7739C43.369 11.1743 43.3047 10.5151 43.4309 9.87903C43.5571 9.24296 43.8682 8.65828 44.3252 8.19824C44.6256 7.89158 44.9857 7.64982 45.3833 7.48792C45.7809 7.32601 46.2074 7.24741 46.6366 7.25697C47.0787 7.2555 47.5165 7.34448 47.923 7.51844C48.3014 7.67108 48.6383 7.91122 48.9061 8.21916L48.3518 8.77346C48.143 8.52517 47.8794 8.32883 47.5817 8.19996C47.2841 8.07108 46.9605 8.01321 46.6366 8.03091C46.3099 8.02931 45.9863 8.09369 45.6851 8.2202C45.3839 8.3467 45.1113 8.53273 44.8838 8.76713C44.6562 9.00152 44.4783 9.27945 44.3608 9.58426C44.2432 9.88907 44.1885 10.2145 44.1997 10.541C44.1929 11.0285 44.3306 11.5071 44.5954 11.9164C44.8603 12.3258 45.2404 12.6475 45.6879 12.8411C46.1354 13.0346 46.6302 13.0913 47.1099 13.0039C47.5896 12.9166 48.0326 12.6892 48.3832 12.3503C48.705 12.0015 48.8906 11.5486 48.9061 11.0743H46.6366V10.3213H49.68C49.7079 10.4767 49.7219 10.6342 49.7219 10.792ZM54.5119 8.17733H51.6881V10.1645H54.2609V10.9175H51.6881V12.9046H54.5119V13.6785H50.8514V7.40339H54.5119V8.17733ZM57.9423 13.6785H57.137V8.17733H55.3799V7.40339H59.7412V8.17733H57.9423V13.6785ZM62.816 13.6785V7.40339H63.6213V13.6785H62.816ZM67.1981 13.6785H66.3928V8.17733H64.6358V7.40339H68.9447V8.17733H67.1981V13.6785ZM77.1128 12.8628C76.5014 13.4708 75.6742 13.8121 74.812 13.8121C73.9497 13.8121 73.1225 13.4708 72.5111 12.8628C71.9168 12.2337 71.5857 11.4011 71.5857 10.5357C71.5857 9.67035 71.9168 8.83776 72.5111 8.2087C72.8124 7.90514 73.1709 7.6642 73.5658 7.49979C73.9607 7.33538 74.3842 7.25073 74.812 7.25073C75.2397 7.25073 75.6632 7.33538 76.0581 7.49979C76.453 7.6642 76.8115 7.90514 77.1128 8.2087C77.7095 8.83656 78.0422 9.6696 78.0422 10.5357C78.0422 11.4019 77.7095 12.2349 77.1128 12.8628ZM73.1072 12.3398C73.56 12.7907 74.173 13.0439 74.812 13.0439C75.451 13.0439 76.0639 12.7907 76.5167 12.3398C76.9635 11.8473 77.211 11.206 77.211 10.541C77.211 9.87591 76.9635 9.23467 76.5167 8.74209C76.0639 8.2912 75.451 8.03805 74.812 8.03805C74.173 8.03805 73.56 8.2912 73.1072 8.74209C72.6604 9.23467 72.4129 9.87591 72.4129 10.541C72.4129 11.206 72.6604 11.8473 73.1072 12.3398ZM79.1732 13.6785V7.40339H80.1563L83.2102 12.2875V7.40339H84.0155V13.6785H83.1788L79.9889 8.56429V13.6785H79.1732Z" fill="white" stroke="white" stroke-width="0.209171" stroke-miterlimit="10"/>
    <path d="M71.392 22.8302C70.5138 22.8344 69.6565 23.0986 68.9283 23.5895C68.2001 24.0804 67.6336 24.776 67.3004 25.5886C66.9672 26.4011 66.8821 27.2942 67.056 28.155C67.2299 29.0159 67.6548 29.8059 68.2773 30.4254C68.8997 31.045 69.6918 31.4662 70.5534 31.6361C71.4151 31.8059 72.3077 31.7166 73.1187 31.3796C73.9297 31.0426 74.6226 30.4729 75.1101 29.7424C75.5976 29.0119 75.8578 28.1533 75.8578 27.2751C75.8663 26.6873 75.7565 26.1037 75.5348 25.5592C75.3131 25.0147 74.9842 24.5204 74.5675 24.1057C74.1508 23.6909 73.6549 23.3643 73.1094 23.1452C72.5638 22.926 71.9798 22.8189 71.392 22.8302ZM71.392 29.9734C70.8519 30.0112 70.3129 29.8856 69.8451 29.613C69.3774 29.3404 69.0024 28.9334 68.769 28.4448C68.5356 27.9563 68.4546 27.4089 68.5365 26.8737C68.6183 26.3385 68.8593 25.8403 69.2281 25.4439C69.5968 25.0474 70.0763 24.7711 70.6042 24.6508C71.1321 24.5305 71.684 24.5718 72.1881 24.7693C72.6922 24.9668 73.1252 25.3114 73.4309 25.7583C73.7366 26.2052 73.9007 26.7337 73.902 27.2751C73.9189 27.6182 73.8669 27.9611 73.7491 28.2838C73.6313 28.6064 73.4501 28.9022 73.2161 29.1537C72.9822 29.4051 72.7003 29.6072 72.387 29.748C72.0737 29.8888 71.7354 29.9655 71.392 29.9734ZM61.6551 22.8302C60.7764 22.8323 59.9181 23.0947 59.1885 23.5844C58.4589 24.0741 57.8908 24.769 57.556 25.5814C57.2212 26.3937 57.1346 27.2871 57.3073 28.1487C57.48 29.0102 57.9042 29.8012 58.5262 30.4218C59.1483 31.0424 59.9403 31.4647 60.8022 31.6353C61.6641 31.806 62.5573 31.7174 63.3689 31.3806C64.1805 31.0439 64.8741 30.4742 65.362 29.7435C65.85 29.0127 66.1104 28.1538 66.1104 27.2751C66.1189 26.6873 66.0091 26.1037 65.7874 25.5592C65.5658 25.0147 65.2368 24.5204 64.8201 24.1057C64.4034 23.6909 63.9075 23.3643 63.362 23.1452C62.8165 22.926 62.2324 22.8189 61.6446 22.8302H61.6551ZM61.6551 29.9734C61.1147 30.0133 60.5748 29.8896 60.1058 29.6184C59.6367 29.3472 59.2601 28.9411 59.0251 28.4528C58.7901 27.9646 58.7075 27.417 58.7881 26.8812C58.8686 26.3454 59.1087 25.8462 59.4769 25.4487C59.8451 25.0512 60.3245 24.7738 60.8526 24.6526C61.3806 24.5313 61.933 24.5719 62.4377 24.7689C62.9425 24.966 63.3762 25.3104 63.6824 25.7574C63.9886 26.2044 64.1532 26.7333 64.1547 27.2751C64.1715 27.6182 64.1195 27.9611 64.0017 28.2838C63.8839 28.6064 63.7027 28.9022 63.4687 29.1537C63.2348 29.4051 62.9529 29.6072 62.6396 29.748C62.3263 29.8888 61.988 29.9655 61.6446 29.9734H61.6551ZM50.0565 24.2003V26.0828H54.5746C54.5038 26.9695 54.1352 27.8062 53.5288 28.4569C53.0767 28.9174 52.5334 29.278 51.9335 29.5158C51.3337 29.7536 50.6908 29.8631 50.0461 29.8375C48.7146 29.8375 47.4378 29.3086 46.4963 28.3671C45.5549 27.4257 45.026 26.1488 45.026 24.8174C45.026 23.4859 45.5549 22.2091 46.4963 21.2676C47.4378 20.3261 48.7146 19.7972 50.0461 19.7972C51.3197 19.7765 52.5496 20.2617 53.466 21.1464L54.7943 19.8182C54.1756 19.1917 53.4375 18.6958 52.6237 18.3599C51.8099 18.0239 50.9369 17.8548 50.0565 17.8624C49.1268 17.8262 48.1992 17.9781 47.3296 18.309C46.4599 18.6398 45.666 19.1428 44.9954 19.7878C44.3248 20.4329 43.7913 21.2066 43.4268 22.0628C43.0624 22.9189 42.8746 23.8398 42.8746 24.7703C42.8746 25.7008 43.0624 26.6217 43.4268 27.4778C43.7913 28.3339 44.3248 29.1077 44.9954 29.7527C45.666 30.3978 46.4599 30.9008 47.3296 31.2316C48.1992 31.5625 49.1268 31.7144 50.0565 31.6782C50.9517 31.7186 51.8452 31.5669 52.6769 31.2331C53.5085 30.8994 54.259 30.3914 54.8779 29.7433C55.9736 28.5395 56.5587 26.9569 56.5095 25.3298C56.5128 24.9334 56.4778 24.5376 56.4049 24.148L50.0565 24.2003ZM97.4443 25.6645C97.1715 24.862 96.6615 24.1614 95.9816 23.6552C95.3018 23.1491 94.4843 22.8614 93.6374 22.8302C93.0653 22.8291 92.499 22.9453 91.9736 23.1717C91.4483 23.3981 90.9749 23.7299 90.5828 24.1465C90.1907 24.5631 89.8882 25.0556 89.6941 25.5938C89.4999 26.1319 89.4182 26.7041 89.4539 27.2751C89.4412 27.8597 89.5465 28.4408 89.7634 28.9837C89.9803 29.5267 90.3044 30.0204 90.7163 30.4352C91.1283 30.8501 91.6197 31.1777 92.1611 31.3985C92.7025 31.6192 93.2828 31.7286 93.8674 31.72C94.599 31.7239 95.3202 31.5464 95.9663 31.2033C96.6124 30.8601 97.1633 30.3621 97.5698 29.7538L96.0533 28.7079C95.8269 29.0853 95.5065 29.3974 95.1234 29.6137C94.7402 29.83 94.3074 29.9432 93.8674 29.942C93.4144 29.9593 92.9667 29.8399 92.5824 29.5993C92.1982 29.3586 91.8953 29.008 91.713 28.5929L97.6639 26.1351L97.4443 25.6645ZM91.3783 27.1496C91.3571 26.8261 91.4007 26.5017 91.5064 26.1952C91.6122 25.8888 91.7781 25.6065 91.9943 25.365C92.2105 25.1234 92.4728 24.9274 92.7657 24.7885C93.0586 24.6496 93.3763 24.5705 93.7001 24.5559C94.0375 24.5337 94.3739 24.611 94.6677 24.7784C94.9615 24.9457 95.1996 25.1956 95.3526 25.4972L91.3783 27.1496ZM86.5464 31.4585H88.5022V18.3853H86.5464V31.4585ZM83.3461 23.8238H83.2729C82.9782 23.4942 82.6171 23.2307 82.2133 23.0505C81.8096 22.8702 81.3723 22.7774 80.9302 22.7779C79.7873 22.8334 78.7095 23.3264 77.9202 24.1549C77.1309 24.9834 76.6907 26.0838 76.6907 27.2281C76.6907 28.3723 77.1309 29.4727 77.9202 30.3012C78.7095 31.1297 79.7873 31.6227 80.9302 31.6782C81.3734 31.6856 81.8128 31.5958 82.2176 31.4151C82.6223 31.2345 82.9826 30.9672 83.2729 30.6323H83.3357V31.2703C83.3357 32.975 82.4258 33.8849 80.9616 33.8849C80.4739 33.8735 80.0007 33.7172 79.6021 33.436C79.2035 33.1548 78.8977 32.7613 78.7234 32.3057L77.0187 33.0169C77.3396 33.7974 77.8864 34.4644 78.5889 34.9321C79.2914 35.3998 80.1176 35.647 80.9616 35.642C83.252 35.642 85.145 34.2928 85.145 31.0088V23.0917H83.3461V23.8238ZM81.108 29.9734C80.4334 29.914 79.8055 29.604 79.3481 29.1045C78.8907 28.605 78.637 27.9524 78.637 27.2751C78.637 26.5979 78.8907 25.9452 79.3481 25.4457C79.8055 24.9463 80.4334 24.6363 81.108 24.5768C81.4425 24.594 81.7702 24.6779 82.0717 24.8237C82.3733 24.9694 82.6426 25.1741 82.8638 25.4255C83.0851 25.677 83.2538 25.9702 83.3599 26.2878C83.4661 26.6055 83.5076 26.9412 83.4821 27.2751C83.5106 27.6105 83.4708 27.9482 83.3651 28.2678C83.2594 28.5874 83.09 28.8822 82.8671 29.1344C82.6442 29.3867 82.3724 29.5911 82.0683 29.7353C81.7641 29.8795 81.4339 29.9605 81.0975 29.9734H81.108ZM106.606 18.3853H101.931V31.4585H103.887V26.5012H106.616C107.174 26.5412 107.733 26.466 108.261 26.2802C108.788 26.0944 109.271 25.8021 109.68 25.4213C110.089 25.0406 110.415 24.5797 110.638 24.0673C110.861 23.5549 110.976 23.0021 110.976 22.4433C110.976 21.8844 110.861 21.3316 110.638 20.8192C110.415 20.3068 110.089 19.8459 109.68 19.4652C109.271 19.0845 108.788 18.7921 108.261 18.6063C107.733 18.4205 107.174 18.3453 106.616 18.3853H106.606ZM106.606 24.6605H103.876V20.2051H106.648C107.243 20.2051 107.813 20.4415 108.234 20.8622C108.655 21.2829 108.891 21.8535 108.891 22.4485C108.891 23.0435 108.655 23.6141 108.234 24.0348C107.813 24.4555 107.243 24.6918 106.648 24.6918L106.606 24.6605ZM118.665 22.7779C117.953 22.7354 117.244 22.9018 116.625 23.2566C116.006 23.6115 115.505 24.1394 115.182 24.7755L116.918 25.4972C117.089 25.1817 117.348 24.9228 117.664 24.7519C117.98 24.5811 118.338 24.5057 118.696 24.535C118.944 24.506 119.196 24.5267 119.436 24.596C119.676 24.6652 119.9 24.7816 120.095 24.9384C120.29 25.0951 120.451 25.2891 120.57 25.5089C120.689 25.7287 120.763 25.9701 120.788 26.2188V26.3548C120.16 26.0222 119.459 25.8497 118.748 25.8527C116.876 25.8527 114.983 26.8986 114.983 28.7916C115.002 29.1952 115.101 29.5911 115.275 29.9557C115.449 30.3203 115.695 30.6463 115.997 30.9145C116.299 31.1826 116.652 31.3874 117.035 31.5168C117.418 31.6462 117.822 31.6975 118.225 31.6677C118.718 31.7031 119.211 31.6052 119.653 31.3844C120.094 31.1636 120.468 30.8279 120.735 30.4127H120.798V31.4585H122.681V26.428C122.681 24.1375 120.945 22.8093 118.717 22.8093L118.665 22.7779ZM118.424 29.942C117.786 29.942 116.897 29.6178 116.897 28.8334C116.897 27.7876 118.006 27.4425 118.989 27.4425C119.61 27.4271 120.224 27.5788 120.767 27.8817C120.701 28.4479 120.434 28.9715 120.013 29.3558C119.592 29.7402 119.046 29.9595 118.476 29.9734L118.424 29.942ZM129.542 23.0917L127.303 28.7602H127.241L124.919 23.0917H122.827L126.31 31.0193L124.323 35.4223H126.362L131.717 23.0917H129.542ZM111.961 31.4585H113.917V18.3853H111.961V31.4585Z" fill="white"/>
    <path d="M11.0463 7.96896C10.7054 8.37801 10.5334 8.90165 10.5652 9.43316V32.5675C10.5334 33.099 10.7054 33.6227 11.0463 34.0317L11.1195 34.1049L24.0777 21.1572V20.8539L11.1195 7.89575L11.0463 7.96896Z" fill="url(#paint0_linear_4709_377)"/>
    <path d="M28.3655 25.4762L24.0775 21.1568V20.8535L28.3655 16.5237L28.4596 16.576L33.5947 19.4939C35.0589 20.3201 35.0589 21.6798 33.5947 22.5164L28.4805 25.4239L28.3655 25.4762Z" fill="url(#paint1_linear_4709_377)"/>
    <path d="M28.4908 25.4135L24.0773 21L11.046 34.0314C11.3444 34.2937 11.7251 34.4436 12.1223 34.455C12.5195 34.4665 12.9083 34.3388 13.2213 34.0941L28.5013 25.4135" fill="url(#paint2_linear_4709_377)"/>
    <path d="M28.4909 16.5864L13.2109 7.90582C12.8978 7.6611 12.5091 7.53344 12.1119 7.5449C11.7147 7.55636 11.334 7.70621 11.0355 7.96857L24.0774 20.9999L28.4909 16.5864Z" fill="url(#paint3_linear_4709_377)"/>
    <path opacity="0.2" d="M28.3653 25.3191L13.2109 33.9474C12.9089 34.1732 12.542 34.2952 12.165 34.2952C11.788 34.2952 11.4211 34.1732 11.1192 33.9474L11.046 34.0206L11.1192 34.0938C11.4204 34.3212 11.7876 34.4442 12.165 34.4442C12.5425 34.4442 12.9096 34.3212 13.2109 34.0938L28.4908 25.4132L28.3653 25.3191Z" fill="black"/>
    <path opacity="0.12" d="M11.0463 33.8849C10.7054 33.4759 10.5334 32.9523 10.5652 32.4207V32.5776C10.5334 33.1091 10.7054 33.6328 11.0463 34.0418L11.1195 33.9686L11.0463 33.8849ZM33.595 22.3596L28.3657 25.3194L28.4598 25.4135L33.595 22.506C33.8863 22.3692 34.1365 22.1578 34.3201 21.8934C34.5037 21.629 34.6143 21.3208 34.6408 21C34.582 21.2915 34.4571 21.5656 34.2758 21.8013C34.0945 22.037 33.8616 22.228 33.595 22.3596Z" fill="black"/>
    <path opacity="0.25" d="M13.2109 8.05207L33.5946 19.6402C33.8612 19.7718 34.0942 19.9628 34.2755 20.1985C34.4568 20.4342 34.5816 20.7083 34.6405 20.9998C34.614 20.6789 34.5033 20.3708 34.3197 20.1063C34.1361 19.8419 33.886 19.6306 33.5946 19.4937L13.2109 7.90565C11.7467 7.07942 10.5544 7.76969 10.5544 9.44306V9.59994C10.5858 7.91611 11.7571 7.22585 13.2109 8.05207Z" fill="white"/>
    </g>
    <defs>
    <linearGradient id="paint0_linear_4709_377" x1="22.9272" y1="9.19261" x2="5.37776" y2="26.7421" gradientUnits="userSpaceOnUse">
    <stop stop-color="#00A0FF"/>
    <stop offset="0.01" stop-color="#00A1FF"/>
    <stop offset="0.26" stop-color="#00BEFF"/>
    <stop offset="0.51" stop-color="#00D2FF"/>
    <stop offset="0.76" stop-color="#00DFFF"/>
    <stop offset="1" stop-color="#00E3FF"/>
    </linearGradient>
    <linearGradient id="paint1_linear_4709_377" x1="35.5087" y1="20.9999" x2="10.2094" y2="20.9999" gradientUnits="userSpaceOnUse">
    <stop stop-color="#FFE000"/>
    <stop offset="0.41" stop-color="#FFBD00"/>
    <stop offset="0.78" stop-color="#FFA500"/>
    <stop offset="1" stop-color="#FF9C00"/>
    </linearGradient>
    <linearGradient id="paint2_linear_4709_377" x1="26.0958" y1="23.4055" x2="2.29214" y2="47.1987" gradientUnits="userSpaceOnUse">
    <stop stop-color="#FF3A44"/>
    <stop offset="1" stop-color="#C31162"/>
    </linearGradient>
    <linearGradient id="paint3_linear_4709_377" x1="7.76199" y1="0.271065" x2="18.3879" y2="10.897" gradientUnits="userSpaceOnUse">
    <stop stop-color="#32A071"/>
    <stop offset="0.07" stop-color="#2DA771"/>
    <stop offset="0.48" stop-color="#15CF74"/>
    <stop offset="0.8" stop-color="#06E775"/>
    <stop offset="1" stop-color="#00F076"/>
    </linearGradient>
    <clipPath id="clip0_4709_377">
    <rect width="141.873" height="41.8343" fill="white" transform="translate(0.127319 0.0827637)"/>
    </clipPath>
    </defs>
    </svg>
    