<svg width="126" height="42" viewBox="0 0 126 42" fill="none" xmlns="http://www.w3.org/2000/svg">
    <g clip-path="url(#clip0_4709_342)">
    <path d="M115.185 0.0826555H9.9719C9.58839 0.0826555 9.20948 0.0826555 8.82697 0.0847472C8.50679 0.0868389 8.18915 0.0929153 7.86588 0.0980296C7.16361 0.106294 6.46298 0.168077 5.77009 0.282843C5.07818 0.400107 4.40794 0.621183 3.78205 0.938595C3.15692 1.25869 2.58572 1.67462 2.08917 2.1713C1.59002 2.66659 1.17394 3.23907 0.856922 3.86673C0.539035 4.49315 0.31861 5.16441 0.203262 5.85733C0.0868175 6.54938 0.0241576 7.24941 0.0158447 7.95114C0.00613918 8.27179 0.00511424 8.59352 0 8.91422V33.0884C0.00511424 33.4132 0.00613918 33.7277 0.0158447 34.0526C0.0241601 34.7543 0.0868201 35.4543 0.203262 36.1463C0.318292 36.8396 0.538729 37.5113 0.856922 38.1379C1.17379 38.7635 1.58993 39.3337 2.08917 39.8262C2.58383 40.3251 3.1554 40.7413 3.78205 41.059C4.40794 41.3773 5.0781 41.5996 5.77009 41.7187C6.4631 41.8326 7.16365 41.8944 7.86588 41.9036C8.18915 41.9107 8.50679 41.9148 8.82697 41.9148C9.20947 41.9169 9.58841 41.9169 9.9719 41.9169H115.185C115.561 41.9169 115.943 41.9169 116.319 41.9148C116.638 41.9148 116.964 41.9107 117.283 41.9036C117.984 41.8949 118.683 41.8331 119.375 41.7187C120.069 41.5988 120.742 41.3765 121.37 41.059C121.997 40.7412 122.568 40.325 123.062 39.8262C123.56 39.3318 123.977 38.762 124.298 38.1379C124.613 37.5108 124.832 36.8392 124.945 36.1463C125.062 35.4542 125.127 34.7543 125.139 34.0526C125.143 33.7277 125.143 33.4132 125.143 33.0884C125.151 32.7085 125.151 32.3306 125.151 31.9445V10.0561C125.151 9.67307 125.151 9.29314 125.143 8.91422C125.143 8.59352 125.143 8.27179 125.139 7.95109C125.127 7.24931 125.062 6.54943 124.945 5.85729C124.831 5.16477 124.613 4.49356 124.298 3.86669C123.652 2.6086 122.628 1.58453 121.37 0.938501C120.742 0.621865 120.069 0.400847 119.375 0.282749C118.683 0.167477 117.984 0.105672 117.283 0.0978832C116.964 0.0927794 116.638 0.0866507 116.319 0.0846112C115.943 0.0825195 115.561 0.0825195 115.185 0.0825195V0.0826555Z" fill="black"/>
    <path d="M8.83218 41.0016C8.51353 41.0016 8.20258 40.9975 7.88643 40.9904C7.23149 40.9818 6.57809 40.9248 5.93157 40.8198C5.32873 40.716 4.74474 40.5228 4.19886 40.2468C3.65799 39.973 3.16467 39.614 2.7378 39.1836C2.30475 38.7582 1.94422 38.2648 1.67049 37.723C1.39375 37.1777 1.20222 36.5932 1.10259 35.9898C0.995 35.3415 0.936788 34.686 0.928458 34.0288C0.921828 33.8083 0.913147 33.0739 0.913147 33.0739V8.914C0.913147 8.914 0.922392 8.19089 0.928511 7.97844C0.936486 7.32236 0.99436 6.66783 1.10163 6.02052C1.20145 5.41552 1.39312 4.82931 1.67001 4.28221C1.94273 3.74078 2.30126 3.24705 2.7317 2.82015C3.16166 2.3892 3.65656 2.02836 4.19835 1.75079C4.74297 1.47561 5.32586 1.28384 5.92748 1.18191C6.57612 1.07583 7.23179 1.01847 7.889 1.01033L8.8327 0.997559H116.314L117.269 1.01084C117.92 1.01858 118.57 1.07542 119.212 1.18089C119.82 1.2841 120.409 1.4772 120.96 1.75386C122.045 2.31323 122.929 3.19821 123.486 4.28476C123.758 4.82809 123.947 5.40951 124.045 6.00929C124.154 6.66191 124.215 7.32158 124.227 7.98304C124.23 8.27923 124.23 8.59738 124.23 8.914C124.239 9.3062 124.239 9.67949 124.239 10.0559V31.9442C124.239 32.3242 124.239 32.695 124.23 33.0687C124.23 33.4089 124.23 33.7204 124.226 34.0411C124.214 34.6907 124.154 35.3386 124.047 35.9796C123.95 36.5873 123.759 37.1764 123.483 37.7262C123.207 38.2621 122.849 38.7512 122.42 39.1754C121.993 39.6082 121.499 39.9692 120.957 40.2448C120.408 40.523 119.819 40.7168 119.212 40.8198C118.566 40.9254 117.912 40.9824 117.258 40.9904C116.951 40.9975 116.63 41.0016 116.319 41.0016L115.185 41.0037L8.83218 41.0016Z" fill="white"/>
    <path d="M26.1431 20.8836C26.1548 19.9758 26.3959 19.0858 26.844 18.2962C27.2921 17.5067 27.9327 16.8433 28.706 16.3679C28.2147 15.6662 27.5666 15.0888 26.8131 14.6814C26.0596 14.274 25.2215 14.048 24.3653 14.0212C22.539 13.8295 20.7685 15.1141 19.8378 15.1141C18.8891 15.1141 17.4563 14.0402 15.9133 14.072C14.9152 14.1042 13.9426 14.3945 13.09 14.9144C12.2375 15.4343 11.5342 16.1662 11.0486 17.0388C8.94527 20.6804 10.5142 26.0325 12.529 28.9762C13.5371 30.4176 14.7153 32.0277 16.2569 31.9706C17.7654 31.908 18.3288 31.0087 20.1497 31.0087C21.9538 31.0087 22.4824 31.9706 24.0552 31.9343C25.674 31.908 26.6939 30.4865 27.6666 29.0314C28.3909 28.0043 28.9482 26.8692 29.318 25.668C28.3776 25.2703 27.575 24.6045 27.0104 23.7537C26.4458 22.9029 26.1442 21.9047 26.1431 20.8836Z" fill="black"/>
    <path d="M23.172 12.0854C24.0546 11.0259 24.4894 9.66402 24.3841 8.28906C23.0357 8.43069 21.7902 9.07514 20.8956 10.094C20.4583 10.5918 20.1233 11.1708 19.9099 11.7981C19.6964 12.4254 19.6087 13.0886 19.6518 13.7498C20.3262 13.7568 20.9934 13.6106 21.6032 13.3223C22.213 13.034 22.7494 12.6111 23.172 12.0854Z" fill="black"/>
    <path d="M44.2414 28.4658H39.291L38.1021 31.9762H36.0053L40.6943 18.9888H42.8728L47.5618 31.9762H45.4292L44.2414 28.4658ZM39.8037 26.846H43.7277L41.7933 21.1489H41.7391L39.8037 26.846Z" fill="black"/>
    <path d="M57.6894 27.2428C57.6894 30.1853 56.1145 32.0758 53.7379 32.0758C53.1358 32.1072 52.5371 31.9686 52.0102 31.6756C51.4833 31.3826 51.0495 30.9472 50.7586 30.4191H50.7136V35.1091H48.77V22.5078H50.6513V24.0827H50.6871C50.9914 23.5572 51.4324 23.124 51.9634 22.8293C52.4943 22.5345 53.0952 22.3892 53.7021 22.4087C56.1053 22.4087 57.6894 24.3084 57.6894 27.2428ZM55.6917 27.2428C55.6917 25.3257 54.701 24.0654 53.1894 24.0654C51.7044 24.0654 50.7055 25.3522 50.7055 27.2428C50.7055 29.1506 51.7044 30.4283 53.1894 30.4283C54.701 30.4283 55.6917 29.1772 55.6917 27.2428H55.6917Z" fill="black"/>
    <path d="M68.111 27.2428C68.111 30.1853 66.5356 32.0758 64.1589 32.0758C63.5568 32.1072 62.9581 31.9686 62.4312 31.6756C61.9043 31.3826 61.4706 30.9472 61.1796 30.4191H61.1347V35.1091H59.191V22.5078H61.0724V24.0827H61.1081C61.4124 23.5572 61.8535 23.124 62.3844 22.8293C62.9153 22.5345 63.5162 22.3892 64.1231 22.4087C66.5264 22.4087 68.111 24.3084 68.111 27.2428ZM66.1127 27.2428C66.1127 25.3257 65.122 24.0654 63.6104 24.0654C62.1254 24.0654 61.1265 25.3522 61.1265 27.2428C61.1265 29.1506 62.1254 30.4283 63.6104 30.4283C65.122 30.4283 66.1127 29.1772 66.1127 27.2428Z" fill="black"/>
    <path d="M74.9978 28.3576C75.1418 29.6455 76.393 30.4911 78.1027 30.4911C79.7409 30.4911 80.9196 29.6455 80.9196 28.4842C80.9196 27.4761 80.2087 26.8725 78.5255 26.4589L76.8424 26.0534C74.4575 25.4773 73.3504 24.362 73.3504 22.5522C73.3504 20.3114 75.3032 18.7722 78.0751 18.7722C80.8205 18.7722 82.7018 20.3114 82.7651 22.5522H80.8031C80.6857 21.2561 79.6143 20.4738 78.0486 20.4738C76.4828 20.4738 75.4114 21.2653 75.4114 22.4174C75.4114 23.3356 76.0957 23.8759 77.7697 24.2895L79.2006 24.6408C81.8653 25.271 82.9714 26.3414 82.9714 28.2411C82.9714 30.6708 81.037 32.1926 77.9586 32.1926C75.0784 32.1926 73.1338 30.7066 73.0082 28.3575L74.9978 28.3576Z" fill="black"/>
    <path d="M87.1681 20.2666V22.5074H88.9688V24.0466H87.1681V29.2667C87.1681 30.0776 87.5287 30.4555 88.3202 30.4555C88.534 30.4518 88.7474 30.4368 88.9596 30.4106V31.9405C88.6037 32.007 88.242 32.0371 87.88 32.0304C85.963 32.0304 85.2153 31.3104 85.2153 29.474V24.0466H83.8386V22.5074H85.2153V20.2666H87.1681Z" fill="black"/>
    <path d="M90.0106 27.2423C90.0106 24.263 91.7652 22.3909 94.5014 22.3909C97.2468 22.3909 98.9933 24.263 98.9933 27.2423C98.9933 30.2297 97.256 32.0936 94.5014 32.0936C91.7478 32.0936 90.0106 30.2297 90.0106 27.2423ZM97.0129 27.2423C97.0129 25.1985 96.0763 23.9923 94.5014 23.9923C92.9265 23.9923 91.9899 25.2077 91.9899 27.2423C91.9899 29.2941 92.9265 30.4912 94.5014 30.4912C96.0763 30.4912 97.0129 29.2941 97.0129 27.2423H97.0129Z" fill="black"/>
    <path d="M100.596 22.5077H102.449V24.1194H102.494C102.62 23.616 102.915 23.1712 103.329 22.8596C103.744 22.5481 104.254 22.3888 104.772 22.4086C104.996 22.4078 105.219 22.4322 105.438 22.4811V24.2991C105.155 24.2127 104.86 24.1731 104.565 24.1817C104.282 24.1702 104.001 24.22 103.739 24.3276C103.478 24.4352 103.243 24.5981 103.051 24.8051C102.858 25.012 102.713 25.2582 102.625 25.5266C102.536 25.7951 102.507 26.0794 102.539 26.3602V31.9766H100.596L100.596 22.5077Z" fill="black"/>
    <path d="M114.399 29.1951C114.138 30.914 112.464 32.0936 110.322 32.0936C107.567 32.0936 105.858 30.2481 105.858 27.2872C105.858 24.3171 107.577 22.3909 110.24 22.3909C112.86 22.3909 114.507 24.1905 114.507 27.0615V27.7274H107.82V27.8448C107.789 28.1933 107.832 28.5444 107.948 28.8747C108.063 29.205 108.247 29.5071 108.488 29.7607C108.729 30.0144 109.021 30.2139 109.345 30.346C109.669 30.4781 110.017 30.5398 110.367 30.5269C110.826 30.5699 111.287 30.4635 111.681 30.2236C112.075 29.9836 112.381 29.6229 112.554 29.1951L114.399 29.1951ZM107.829 26.369H112.563C112.58 26.0557 112.533 25.7421 112.423 25.448C112.314 25.1539 112.145 24.8856 111.927 24.6599C111.708 24.4343 111.446 24.2561 111.156 24.1367C110.866 24.0172 110.554 23.959 110.24 23.9658C109.924 23.9639 109.61 24.0247 109.317 24.1447C109.024 24.2647 108.758 24.4415 108.534 24.665C108.31 24.8884 108.132 25.154 108.011 25.4465C107.89 25.739 107.828 26.0525 107.829 26.369V26.369Z" fill="black"/>
    <path d="M39.5609 9.21338C39.9684 9.18414 40.3773 9.2457 40.7581 9.39362C41.1389 9.54153 41.4822 9.77213 41.7631 10.0688C42.044 10.3654 42.2555 10.7207 42.3825 11.109C42.5095 11.4973 42.5487 11.9089 42.4973 12.3142C42.4973 14.3078 41.4198 15.4538 39.5609 15.4538H37.3068V9.21338H39.5609ZM38.2761 14.5713H39.4527C39.7438 14.5887 40.0352 14.541 40.3056 14.4316C40.576 14.3221 40.8186 14.1538 41.0157 13.9388C41.2129 13.7238 41.3596 13.4676 41.4452 13.1887C41.5308 12.9099 41.5532 12.6155 41.5107 12.3269C41.5501 12.0395 41.5255 11.7469 41.4385 11.4701C41.3516 11.1933 41.2045 10.9391 41.0078 10.7258C40.8112 10.5125 40.5697 10.3454 40.3009 10.2364C40.032 10.1274 39.7423 10.0792 39.4527 10.0953H38.2761V14.5713Z" fill="black"/>
    <path d="M43.5921 13.0973C43.5625 12.7878 43.5979 12.4756 43.6961 12.1806C43.7942 11.8856 43.9529 11.6143 44.162 11.3843C44.3711 11.1542 44.626 10.9704 44.9103 10.8446C45.1947 10.7188 45.5021 10.6538 45.813 10.6538C46.1239 10.6538 46.4314 10.7188 46.7157 10.8446C47 10.9704 47.2549 11.1542 47.464 11.3843C47.6731 11.6143 47.8319 11.8856 47.93 12.1806C48.0281 12.4756 48.0635 12.7878 48.0339 13.0973C48.0641 13.4071 48.0291 13.7198 47.9312 14.0153C47.8334 14.3108 47.6747 14.5825 47.4656 14.813C47.2564 15.0436 47.0013 15.2278 46.7167 15.3538C46.4321 15.4799 46.1243 15.545 45.813 15.545C45.5018 15.545 45.1939 15.4799 44.9093 15.3538C44.6247 15.2278 44.3696 15.0436 44.1605 14.813C43.9513 14.5825 43.7927 14.3108 43.6948 14.0153C43.5969 13.7198 43.5619 13.4071 43.5921 13.0973ZM47.0779 13.0973C47.0779 12.0765 46.6194 11.4795 45.8146 11.4795C45.0067 11.4795 44.5522 12.0765 44.5522 13.0973C44.5522 14.1263 45.0067 14.7187 45.8146 14.7187C46.6194 14.7187 47.078 14.1222 47.078 13.0973H47.0779Z" fill="black"/>
    <path d="M53.9375 15.4543H52.9733L52 11.9858H51.9264L50.9572 15.4543H50.0022L48.7041 10.7449H49.6468L50.4904 14.3384H50.5599L51.5281 10.7449H52.4198L53.388 14.3384H53.4615L54.3011 10.7449H55.2305L53.9375 15.4543Z" fill="black"/>
    <path d="M56.3231 10.745H57.2178V11.4931H57.2873C57.4051 11.2244 57.6038 10.9991 57.8557 10.8487C58.1076 10.6983 58.4002 10.6303 58.6926 10.654C58.9218 10.6368 59.1519 10.6714 59.3659 10.7551C59.5798 10.8389 59.7722 10.9698 59.9288 11.138C60.0853 11.3062 60.202 11.5075 60.2702 11.7269C60.3384 11.9464 60.3563 12.1783 60.3227 12.4056V15.4543H59.3933V12.639C59.3933 11.8822 59.0644 11.5059 58.377 11.5059C58.2215 11.4986 58.0662 11.5251 57.9218 11.5835C57.7774 11.6419 57.6473 11.7308 57.5405 11.8441C57.4337 11.9575 57.3527 12.0926 57.303 12.2402C57.2533 12.3878 57.2361 12.5444 57.2525 12.6993V15.4544H56.3231L56.3231 10.745Z" fill="black"/>
    <path d="M61.8038 8.90625H62.7332V15.4541H61.8038V8.90625Z" fill="black"/>
    <path d="M64.0251 13.0974C63.9955 12.7879 64.031 12.4756 64.1291 12.1806C64.2273 11.8856 64.386 11.6144 64.5952 11.3843C64.8043 11.1542 65.0592 10.9704 65.3436 10.8446C65.6279 10.7188 65.9354 10.6538 66.2463 10.6538C66.5572 10.6538 66.8647 10.7188 67.149 10.8446C67.4334 10.9704 67.6883 11.1542 67.8974 11.3843C68.1066 11.6144 68.2653 11.8856 68.3635 12.1806C68.4616 12.4756 68.497 12.7879 68.4675 13.0974C68.4976 13.4072 68.4626 13.7199 68.3647 14.0154C68.2668 14.3109 68.1081 14.5826 67.8989 14.8131C67.6897 15.0436 67.4346 15.2278 67.15 15.3539C66.8654 15.48 66.5576 15.5451 66.2463 15.5451C65.935 15.5451 65.6272 15.48 65.3426 15.3539C65.058 15.2278 64.8029 15.0436 64.5937 14.8131C64.3845 14.5826 64.2258 14.3109 64.1279 14.0154C64.03 13.7199 63.995 13.4072 64.0251 13.0974ZM67.511 13.0974C67.511 12.0766 67.0524 11.4796 66.2476 11.4796C65.4397 11.4796 64.9852 12.0766 64.9852 13.0974C64.9852 14.1264 65.4397 14.7188 66.2476 14.7188C67.0524 14.7188 67.511 14.1223 67.511 13.0974H67.511Z" fill="black"/>
    <path d="M69.4459 14.1223C69.4459 13.2746 70.0771 12.7859 71.1975 12.7164L72.4732 12.6429V12.2364C72.4732 11.739 72.1443 11.4581 71.509 11.4581C70.9902 11.4581 70.6307 11.6486 70.5275 11.9816H69.6277C69.7227 11.1726 70.4836 10.6538 71.5519 10.6538C72.7326 10.6538 73.3985 11.2416 73.3985 12.2364V15.4541H72.5038V14.7923H72.4303C72.281 15.0297 72.0714 15.2232 71.8229 15.3531C71.5744 15.483 71.2959 15.5447 71.0157 15.5317C70.818 15.5523 70.6182 15.5312 70.4292 15.4698C70.2401 15.4084 70.066 15.3081 69.9181 15.1753C69.7702 15.0425 69.6518 14.8802 69.5705 14.6988C69.4891 14.5175 69.4467 14.3211 69.4459 14.1223ZM72.4732 13.7199V13.3261L71.3232 13.3997C70.6746 13.4431 70.3804 13.6637 70.3804 14.0789C70.3804 14.5027 70.7481 14.7494 71.2537 14.7494C71.4019 14.7644 71.5515 14.7494 71.6938 14.7054C71.836 14.6614 71.9679 14.5892 72.0817 14.4931C72.1955 14.3971 72.2888 14.2791 72.356 14.1463C72.4233 14.0134 72.4631 13.8684 72.4732 13.7199Z" fill="black"/>
    <path d="M74.6199 13.0974C74.6199 11.6093 75.3849 10.6666 76.5748 10.6666C76.8691 10.653 77.1612 10.7235 77.4169 10.8698C77.6727 11.0161 77.8815 11.2322 78.019 11.4928H78.0884V8.90625H79.0178V15.4541H78.1272V14.71H78.0537C77.9056 14.9689 77.6895 15.1823 77.4288 15.3271C77.1681 15.4719 76.8728 15.5427 76.5748 15.5317C75.3768 15.5317 74.6199 14.589 74.6199 13.0974ZM75.58 13.0974C75.58 14.0962 76.0509 14.6973 76.8383 14.6973C77.6217 14.6973 78.1058 14.0876 78.1058 13.1014C78.1058 12.1199 77.6166 11.5015 76.8383 11.5015C76.0559 11.5015 75.58 12.1066 75.58 13.0974H75.58Z" fill="black"/>
    <path d="M82.8635 13.0973C82.8339 12.7878 82.8693 12.4756 82.9674 12.1806C83.0656 11.8856 83.2243 11.6143 83.4334 11.3843C83.6425 11.1542 83.8974 10.9704 84.1817 10.8446C84.466 10.7188 84.7735 10.6538 85.0844 10.6538C85.3953 10.6538 85.7028 10.7188 85.9871 10.8446C86.2714 10.9704 86.5263 11.1542 86.7354 11.3843C86.9445 11.6143 87.1032 11.8856 87.2014 12.1806C87.2995 12.4756 87.3349 12.7878 87.3053 13.0973C87.3355 13.4071 87.3005 13.7198 87.2026 14.0153C87.1047 14.3108 86.9461 14.5825 86.7369 14.813C86.5278 15.0436 86.2727 15.2278 85.9881 15.3538C85.7035 15.4799 85.3957 15.545 85.0844 15.545C84.7731 15.545 84.4653 15.4799 84.1807 15.3538C83.8961 15.2278 83.641 15.0436 83.4318 14.813C83.2227 14.5825 83.064 14.3108 82.9662 14.0153C82.8683 13.7198 82.8333 13.4071 82.8635 13.0973ZM86.3493 13.0973C86.3493 12.0765 85.8907 11.4795 85.0859 11.4795C84.278 11.4795 83.8236 12.0765 83.8236 13.0973C83.8236 14.1263 84.2781 14.7187 85.0859 14.7187C85.8907 14.7187 86.3493 14.1222 86.3493 13.0973Z" fill="black"/>
    <path d="M88.5522 10.745H89.4469V11.4931H89.5164C89.6342 11.2244 89.8329 10.9991 90.0849 10.8487C90.3368 10.6983 90.6293 10.6303 90.9218 10.654C91.1509 10.6368 91.381 10.6714 91.595 10.7551C91.809 10.8389 92.0014 10.9698 92.1579 11.138C92.3144 11.3062 92.4311 11.5075 92.4993 11.7269C92.5675 11.9464 92.5855 12.1783 92.5518 12.4056V15.4543H91.6224V12.639C91.6224 11.8822 91.2935 11.5059 90.6062 11.5059C90.4506 11.4986 90.2953 11.5251 90.1509 11.5835C90.0065 11.6419 89.8765 11.7308 89.7696 11.8441C89.6628 11.9575 89.5818 12.0926 89.5321 12.2402C89.4824 12.3878 89.4652 12.5444 89.4817 12.6993V15.4544H88.5522V10.745Z" fill="black"/>
    <path d="M97.8036 9.57178V10.7657H98.8239V11.5486H97.8036V13.9702C97.8036 14.4635 98.0068 14.6795 98.4695 14.6795C98.5879 14.6791 98.7063 14.672 98.8239 14.6581V15.4322C98.657 15.4621 98.4879 15.478 98.3183 15.4797C97.2847 15.4797 96.8731 15.1161 96.8731 14.2082V11.5485H96.1255V10.7657H96.8731V9.57178H97.8036Z" fill="black"/>
    <path d="M100.093 8.90625H101.015V11.5015H101.088C101.212 11.2303 101.416 11.0038 101.673 10.8528C101.93 10.7018 102.227 10.6338 102.524 10.6579C102.752 10.6455 102.98 10.6835 103.192 10.7693C103.403 10.8551 103.593 10.9866 103.748 11.1542C103.903 11.3219 104.019 11.5218 104.088 11.7394C104.157 11.9571 104.176 12.1873 104.146 12.4135V15.4541H103.216V12.6428C103.216 11.8906 102.865 11.5096 102.209 11.5096C102.049 11.4965 101.888 11.5185 101.738 11.574C101.587 11.6295 101.451 11.7172 101.338 11.8309C101.225 11.9446 101.138 12.0816 101.084 12.2324C101.03 12.3831 101.009 12.5439 101.023 12.7036V15.4541H100.093L100.093 8.90625Z" fill="black"/>
    <path d="M109.565 14.1826C109.439 14.613 109.165 14.9853 108.792 15.2344C108.419 15.4835 107.97 15.5935 107.525 15.5451C107.214 15.5533 106.906 15.4939 106.621 15.3709C106.336 15.248 106.081 15.0646 105.874 14.8333C105.667 14.602 105.513 14.3285 105.422 14.0316C105.332 13.7348 105.307 13.4218 105.349 13.1143C105.308 12.8059 105.333 12.4922 105.424 12.1945C105.514 11.8968 105.667 11.6219 105.873 11.3886C106.079 11.1553 106.333 10.969 106.617 10.8422C106.901 10.7155 107.209 10.6512 107.52 10.6539C108.831 10.6539 109.621 11.5491 109.621 13.028V13.3523H106.296V13.4044C106.281 13.5772 106.303 13.7512 106.36 13.9151C106.416 14.079 106.506 14.2293 106.625 14.3564C106.743 14.4834 106.886 14.5843 107.045 14.6527C107.205 14.7211 107.377 14.7555 107.55 14.7535C107.772 14.7802 107.998 14.7402 108.197 14.6385C108.397 14.5369 108.561 14.3782 108.67 14.1826L109.565 14.1826ZM106.296 12.6649H108.675C108.686 12.5069 108.665 12.3481 108.611 12.1988C108.558 12.0496 108.474 11.9131 108.365 11.7982C108.256 11.6833 108.124 11.5925 107.978 11.5317C107.831 11.4708 107.674 11.4413 107.515 11.4449C107.355 11.4429 107.195 11.4731 107.046 11.5337C106.897 11.5943 106.762 11.6841 106.648 11.7978C106.535 11.9115 106.445 12.0468 106.384 12.1957C106.324 12.3446 106.294 12.5042 106.296 12.6649H106.296Z" fill="black"/>
    </g>
    <defs>
    <clipPath id="clip0_4709_342">
    <rect width="125.151" height="41.8343" fill="white" transform="translate(0 0.0827637)"/>
    </clipPath>
    </defs>
    </svg>
    