<svg width="24" height="24" viewBox="0 0 24 24" fill="none" xmlns="http://www.w3.org/2000/svg">
	<path d="M21.1134 5.27906C21.0079 5.15261 20.8758 5.05087 20.7266 4.98105C20.5774 4.91123 20.4147 4.87503 20.25 4.875H5.4375L5.03719 2.66438C4.95859 2.23235 4.73085 1.84162 4.39368 1.5603C4.05651 1.27899 3.6313 1.12493 3.19219 1.125H1.5C1.20163 1.125 0.915483 1.24353 0.704505 1.4545C0.493526 1.66548 0.375 1.95163 0.375 2.25C0.375 2.54837 0.493526 2.83452 0.704505 3.0455C0.915483 3.25647 1.20163 3.375 1.5 3.375H2.87906L5.21437 16.2188C5.27707 16.5599 5.40676 16.8852 5.59594 17.1759C5.26101 17.5678 5.03272 18.0394 4.93309 18.5452C4.83345 19.051 4.86583 19.5739 5.0271 20.0635C5.18837 20.5532 5.4731 20.993 5.85381 21.3406C6.23452 21.6881 6.69837 21.9318 7.20063 22.0479C7.70288 22.164 8.22659 22.1488 8.72124 22.0036C9.2159 21.8585 9.6648 21.5883 10.0247 21.2192C10.3845 20.8501 10.6432 20.3944 10.7757 19.8962C10.9082 19.3981 10.9101 18.8741 10.7812 18.375H13.9687C13.8123 18.9807 13.8492 19.6202 14.0742 20.2039C14.2992 20.7877 14.7011 21.2865 15.2236 21.6305C15.746 21.9746 16.363 22.1467 16.9882 22.1228C17.6133 22.0989 18.2153 21.8801 18.71 21.4972C19.2047 21.1142 19.5673 20.5862 19.747 19.9869C19.9267 19.3877 19.9147 18.7473 19.7124 18.1553C19.5102 17.5633 19.128 17.0493 18.6192 16.6852C18.1104 16.3212 17.5006 16.1253 16.875 16.125H7.79719C7.70951 16.1249 7.62465 16.0941 7.55734 16.0379C7.49003 15.9817 7.44453 15.9037 7.42875 15.8175L7.21125 14.625H17.6344C18.2493 14.625 18.8446 14.4091 19.3167 14.0151C19.7887 13.621 20.1074 13.0738 20.2172 12.4688L21.3572 6.20062C21.3865 6.03854 21.3799 5.87199 21.3377 5.71275C21.2956 5.55351 21.2191 5.40546 21.1134 5.27906ZM8.625 19.125C8.625 19.2733 8.58101 19.4183 8.4986 19.5417C8.41619 19.665 8.29906 19.7611 8.16201 19.8179C8.02497 19.8747 7.87417 19.8895 7.72868 19.8606C7.5832 19.8316 7.44956 19.7602 7.34467 19.6553C7.23978 19.5504 7.16835 19.4168 7.13941 19.2713C7.11047 19.1258 7.12532 18.975 7.18209 18.838C7.23886 18.7009 7.33498 18.5838 7.45832 18.5014C7.58166 18.419 7.72666 18.375 7.875 18.375C8.07391 18.375 8.26468 18.454 8.40533 18.5947C8.54598 18.7353 8.625 18.9261 8.625 19.125ZM16.875 19.875C16.7267 19.875 16.5817 19.831 16.4583 19.7486C16.335 19.6662 16.2389 19.5491 16.1821 19.412C16.1253 19.275 16.1105 19.1242 16.1394 18.9787C16.1683 18.8332 16.2398 18.6996 16.3447 18.5947C16.4496 18.4898 16.5832 18.4184 16.7287 18.3894C16.8742 18.3605 17.025 18.3753 17.162 18.4321C17.2991 18.4889 17.4162 18.585 17.4986 18.7083C17.581 18.8317 17.625 18.9767 17.625 19.125C17.625 19.3239 17.546 19.5147 17.4053 19.6553C17.2647 19.796 17.0739 19.875 16.875 19.875ZM18 12.0675C17.9843 12.1533 17.9392 12.2309 17.8725 12.287C17.8058 12.3431 17.7216 12.3742 17.6344 12.375H6.8025L5.84812 7.125H18.9019L18 12.0675Z" fill="#98A2B3" />
</svg>
